#!OML:ASF X:\für Bonn\!DataBase\2005_08_10_Bjorn_Final\c3d\bjorn.ASF
:FULLY-SPECIFIED
:DEGREES
311
root -0.294522 17.3634 4.58726 -183.263 35.8697 178.345
lowerback -1.5601 6.72943 -2.17891
upperback 7.07629 10.3062 -5.19379
thorax 8.99118 5.42289 -3.25927
lowerneck 5.20349 2.07933 13.8708
upperneck 4.93231 3.84802 -3.03641
head 1.03505 2.29359 -3.47375
rclavicle -5.68524e-014 3.18055e-014
rhumerus 76.0291 9.2901 -69.3765
rradius 41.7463
rwrist 22.6286
rhand -11.4379 -2.31505
rfingers 7.12502
rthumb 14.5986 -31.7813
lclavicle -5.68524e-014 3.18055e-014
lhumerus 50.2666 -19.6441 82.2939
lradius 61.6854
lwrist 70.9272
lhand -54.7594 13.6833
lfingers 7.12502
lthumb -27.15 41.7504
rfemur 536.642 -188.185 -539.938
rtibia 54.4587
rfoot -4.93269 32.3342
rtoes -28.5407
lfemur 332.425 -8.62617 345.403
ltibia 61.7969
lfoot -23.393 8.47253
ltoes -35.5934
312
root -0.272833 17.471 4.5881 -182.923 35.7928 178.454
lowerback -1.63393 6.72603 -2.25226
upperback 6.99368 10.3006 -5.23823
thorax 8.93854 5.41392 -3.26322
lowerneck 5.28836 2.12321 13.826
upperneck 4.86158 3.91895 -2.90388
head 0.99875 2.32789 -3.42008
rclavicle -2.94201e-014 6.52014e-014
rhumerus 76.1031 9.22172 -69.3749
rradius 41.7379
rwrist 22.6107
rhand -11.7703 -1.94782
rfingers 7.12502
rthumb 14.2783 -31.4369
lclavicle -2.94201e-014 6.52014e-014
lhumerus 50.508 -19.6362 82.1127
lradius 61.7595
lwrist 70.842
lhand -54.5277 13.125
lfingers 7.12502
lthumb -26.9283 41.2265
rfemur 536.471 -187.867 -539.719
rtibia 54.0244
rfoot -4.66706 31.7879
rtoes -29.8927
lfemur 332.907 -8.71816 345.604
ltibia 60.3409
lfoot -22.9021 8.08378
ltoes -34.9653
313
root -0.250481 17.5782 4.59172 -182.639 35.6936 178.551
lowerback -1.66361 6.71058 -2.30985
upperback 6.92297 10.2799 -5.28988
thorax 8.8768 5.4009 -3.28958
lowerneck 5.3328 2.17344 13.7746
upperneck 4.84317 3.99295 -2.7605
head 0.986601 2.36625 -3.36034
rclavicle -2.82274e-014 -1.06549e-013
rhumerus 76.1693 9.16763 -69.4965
rradius 41.7088
rwrist 22.8263
rhand -12.1768 -1.44779
rfingers 7.12502
rthumb 13.8866 -30.9641
lclavicle -2.82274e-014 -1.06549e-013
lhumerus 50.6977 -19.6387 81.9238
lradius 61.9066
lwrist 70.7254
lhand -54.3509 12.5024
lfingers 7.12502
lthumb -26.7592 40.6299
rfemur 536.351 -187.59 -539.47
rtibia 53.5806
rfoot -4.49525 31.2366
rtoes -31.5063
lfemur 333.448 -8.83162 345.804
ltibia 58.8621
lfoot -22.3893 7.6418
ltoes -34.218
314
root -0.227283 17.6886 4.59975 -182.26 35.5928 178.611
lowerback -1.8288 6.70368 -2.41889
upperback 6.83864 10.279 -5.34907
thorax 8.87311 5.39111 -3.27739
lowerneck 5.28356 2.22543 13.7175
upperneck 4.88976 4.05451 -2.60255
head 1.01067 2.40093 -3.29231
rclavicle -1.51076e-014 5.725e-014
rhumerus 76.2669 9.08223 -69.5765
rradius 41.7205
rwrist 23.0332
rhand -12.5418 -0.995708
rfingers 7.12502
rthumb 13.5349 -30.5358
lclavicle -1.51076e-014 5.725e-014
lhumerus 50.8946 -19.6772 81.7898
lradius 62.0212
lwrist 70.5387
lhand -54.2179 11.7924
lfingers 7.12502
lthumb -26.6319 39.9393
rfemur 536.086 -187.335 -539.237
rtibia 53.1245
rfoot -4.25309 30.6537
rtoes -32.833
lfemur 333.844 -8.92558 346.008
ltibia 57.3677
lfoot -21.7742 7.17966
ltoes -33.5678
315
root -0.203601 17.7978 4.60797 -182.057 35.5036 178.667
lowerback -1.8492 6.68044 -2.49821
upperback 6.80982 10.2547 -5.385
thorax 8.84532 5.37555 -3.27456
lowerneck 5.27367 2.27415 13.6658
upperneck 4.87694 4.11518 -2.54022
head 1.01065 2.43029 -3.26025
rclavicle -6.44062e-014 4.92986e-014
rhumerus 76.4012 9.06415 -69.6881
rradius 41.7612
rwrist 23.1556
rhand -12.9824 -0.602717
rfingers 7.12502
rthumb 13.1102 -30.1706
lclavicle -6.44062e-014 4.92986e-014
lhumerus 51.0731 -19.6559 81.6414
lradius 62.1287
lwrist 70.3626
lhand -54.1205 11.2164
lfingers 7.12502
lthumb -26.5387 39.3773
rfemur 536.012 -187.169 -538.977
rtibia 52.6232
rfoot -3.81285 30.1176
rtoes -33.6539
lfemur 334.453 -9.041 346.182
ltibia 55.8581
lfoot -21.1042 6.72652
ltoes -32.9375
316
root -0.179028 17.9084 4.617 -181.839 35.4261 178.73
lowerback -1.89102 6.66904 -2.52729
upperback 6.77733 10.2479 -5.44332
thorax 8.8408 5.37327 -3.31719
lowerneck 5.34417 2.28701 13.7134
upperneck 4.72006 4.14191 -2.61734
head 0.952304 2.43508 -3.29911
rclavicle -1.13705e-013 -4.29375e-014
rhumerus 76.5072 9.007 -69.9021
rradius 41.8407
rwrist 23.6046
rhand -13.3168 -0.315055
rfingers 7.12502
rthumb 12.7878 -29.9034
lclavicle -1.13705e-013 -4.29375e-014
lhumerus 51.2635 -19.6713 81.4827
lradius 62.205
lwrist 70.0698
lhand -54.0365 10.8649
lfingers 7.12502
lthumb -26.4582 39.038
rfemur 535.936 -187.055 -538.693
rtibia 52.0835
rfoot -3.25957 29.573
rtoes -34.059
lfemur 335.051 -9.14728 346.364
ltibia 54.3402
lfoot -20.3694 6.36305
ltoes -32.5253
317
root -0.153539 18.0187 4.62662 -181.659 35.387 178.767
lowerback -1.93397 6.6858 -2.56293
upperback 6.75398 10.2798 -5.48917
thorax 8.84574 5.38889 -3.33856
lowerneck 5.37203 2.28223 13.752
upperneck 4.60452 4.13778 -2.71418
head 0.912601 2.42574 -3.3422
rclavicle -3.1408e-014 -1.59028e-015
rhumerus 76.5777 8.93884 -70.1487
rradius 41.9341
rwrist 24.2268
rhand -13.6064 -0.138249
rfingers 7.12502
rthumb 12.5086 -29.7439
lclavicle -3.1408e-014 -1.59028e-015
lhumerus 51.4998 -19.7119 81.3099
lradius 62.2013
lwrist 69.8072
lhand -53.9766 10.5949
lfingers 7.12502
lthumb -26.4009 38.7767
rfemur 535.886 -186.954 -538.432
rtibia 51.4907
rfoot -2.65818 29.0894
rtoes -34.3244
lfemur 335.684 -9.23007 346.524
ltibia 52.8193
lfoot -19.62 6.01807
ltoes -32.2063
318
root -0.128974 18.1277 4.63698 -181.467 35.3564 178.836
lowerback -1.99791 6.69583 -2.5682
upperback 6.74031 10.2976 -5.50686
thorax 8.87201 5.39669 -3.34479
lowerneck 5.41493 2.28391 13.7473
upperneck 4.50155 4.14215 -2.81178
head 0.873985 2.42055 -3.37748
rclavicle -5.00937e-014 6.04305e-014
rhumerus 76.6329 8.90872 -70.3658
rradius 42.0487
rwrist 24.853
rhand -13.9833 -0.0906061
rfingers 7.12502
rthumb 12.1452 -29.7181
lclavicle -5.00937e-014 6.04305e-014
lhumerus 51.7325 -19.6859 81.1431
lradius 62.2221
lwrist 69.6106
lhand -54.0433 10.6384
lfingers 7.12502
lthumb -26.4648 38.8106
rfemur 535.848 -186.879 -538.132
rtibia 50.8646
rfoot -2.10719 28.6401
rtoes -34.306
lfemur 336.309 -9.31088 346.709
ltibia 51.3146
lfoot -18.8359 5.70675
ltoes -31.8664
319
root -0.104146 18.234 4.64904 -181.301 35.3284 178.864
lowerback -2.04875 6.71022 -2.58945
upperback 6.70466 10.3187 -5.53242
thorax 8.86524 5.40538 -3.35359
lowerneck 5.39028 2.28886 13.7433
upperneck 4.56279 4.14566 -2.89117
head 0.900729 2.42425 -3.40361
rclavicle 1.11319e-014 -7.4743e-014
rhumerus 76.6494 8.90696 -70.5505
rradius 42.1551
rwrist 25.309
rhand -14.4551 -0.142253
rfingers 7.12502
rthumb 11.6903 -29.7961
lclavicle 1.11319e-014 -7.4743e-014
lhumerus 51.9169 -19.669 80.9967
lradius 62.2653
lwrist 69.5161
lhand -54.2003 10.7715
lfingers 7.12502
lthumb -26.615 38.9209
rfemur 535.819 -186.823 -537.864
rtibia 50.2067
rfoot -1.64859 28.2767
rtoes -34.1919
lfemur 336.913 -9.36972 346.857
ltibia 49.8354
lfoot -18.0338 5.43663
ltoes -31.7621
320
root -0.0803986 18.3361 4.66268 -181.112 35.2973 178.935
lowerback -2.09472 6.74441 -2.53928
upperback 6.64877 10.3568 -5.55386
thorax 8.84583 5.42601 -3.39614
lowerneck 5.42945 2.26083 13.7799
upperneck 4.59363 4.11835 -3.00335
head 0.905206 2.41243 -3.4508
rclavicle 1.30005e-013 4.29375e-014
rhumerus 76.6517 8.86396 -70.6
rradius 42.2254
rwrist 25.4352
rhand -14.9531 -0.230356
rfingers 7.12502
rthumb 11.21 -29.9109
lclavicle 1.30005e-013 4.29375e-014
lhumerus 52.0599 -19.7006 80.8898
lradius 62.3208
lwrist 69.436
lhand -54.3206 11.0292
lfingers 7.12502
lthumb -26.7302 39.1611
rfemur 535.788 -186.767 -537.552
rtibia 49.5297
rfoot -1.39002 27.9829
rtoes -34.1533
lfemur 337.481 -9.40639 347.053
ltibia 48.405
lfoot -17.2048 5.13558
ltoes -31.584
321
root -0.0571276 18.4344 4.67707 -180.949 35.2609 178.986
lowerback -2.14029 6.76618 -2.49601
upperback 6.58893 10.3751 -5.56404
thorax 8.8169 5.43526 -3.42574
lowerneck 5.51909 2.22751 13.8116
upperneck 4.63693 4.093 -3.15388
head 0.905761 2.40249 -3.51154
rclavicle -5.52621e-014 0
rhumerus 76.6679 8.88876 -70.6396
rradius 42.2779
rwrist 25.4721
rhand -15.4436 -0.368897
rfingers 7.12502
rthumb 10.7369 -30.0745
lclavicle -5.52621e-014 0
lhumerus 52.1602 -19.6932 80.7606
lradius 62.3837
lwrist 69.343
lhand -54.4366 11.5477
lfingers 7.12502
lthumb -26.8411 39.6626
rfemur 535.776 -186.738 -537.256
rtibia 48.8327
rfoot -1.05015 27.7132
rtoes -33.7523
lfemur 338.03 -9.40239 347.219
ltibia 47.0251
lfoot -16.3601 4.8539
ltoes -31.5944
